<svg width="378" height="231" viewBox="0 0 378 231" fill="none" xmlns="http://www.w3.org/2000/svg">
<path d="M64 34C64 26.764 53.3568 25 47.8333 25C40.2242 25 32.0801 24.229 24.5556 25.6111C20.9351 26.2761 13.8655 27.4932 11.6111 31C7.52562 37.3552 9.04252 55.2031 11.7222 61.6111C18.058 76.7619 29.3348 80 44.5 80C60.9576 80 80.5007 76.7876 96.2222 82.2222C105.03 85.2668 113.51 91.863 120 98.4444C125.277 103.795 126 111.187 126 118.444C126 126.9 120.308 132.408 115.333 138.667C108.85 146.824 102.119 150.296 92 152.778C86.3283 154.169 57.6698 154.798 68.6667 141.444C72.1217 137.249 78.4584 134.529 83.1111 131.944C92.8233 126.549 103.084 122.402 113 117.444C125.673 111.108 138.097 104.779 151.056 98.8889C166.376 91.9249 187.101 82.5426 196.722 68.1111C199.514 63.9236 207.891 47.5915 199 45.1667C190.536 42.8582 178.449 44.7533 169.833 45.0555C146.283 45.8819 139.682 78.0928 155.5 93.0555C173.147 109.749 201.045 116.841 223.667 123.667C230.724 125.796 237.834 127.601 245.222 127.944C247.96 128.072 250.381 128.095 253 129C260.535 131.603 269.672 138.427 272.333 146.222C276.182 157.493 259.912 163.687 252.111 166.778C240.46 171.394 227.889 174.106 215.333 174C207.982 173.938 193.403 171.5 189.444 164C187.634 160.569 188.895 153.135 189 149.444C189.278 139.715 200.447 132.183 207.556 127.222C216.468 121.002 227.52 117.724 235.333 110.111C247.061 98.6845 262.547 90.2278 275.389 80C289.937 68.4126 302.95 56.2589 310.444 39C314.293 30.1366 319.024 21.4843 317.889 11.5555C316.385 -1.60459 281.167 0.629643 275.556 8.11111C270.412 14.9686 269.438 25.4597 269 33.6667C268.514 42.7781 263.329 60.0339 272.278 66C278.036 69.839 284.909 71.6114 291.444 73.6111C308.045 78.6903 324.565 84.0825 340.556 90.8889C353.958 96.5936 364.076 102.295 370.222 115.444C374.929 125.514 378.999 140.798 373.889 151.444C367.311 165.147 352.088 175.796 338.444 181C319.931 188.062 301.437 190.909 281.667 191C273.156 191.039 264.461 191.434 256.056 189.833C246.462 188.006 237.086 184.33 227.778 181.444C176.933 165.68 126.426 145.348 79.5556 120C75.8553 117.999 28.1249 94.9569 46.2222 87.3889C62.7342 80.4839 85.5906 80.0885 103 83.2222C114.737 85.3349 126.084 89.7326 137.333 93.5555C146.603 96.7058 156.119 99.3033 164.944 103.611C171.712 106.914 177.686 111.077 185.333 112C199.45 113.704 213.924 113.169 228.111 114.056C235.145 114.495 300.778 121.003 300.778 110.944C300.778 106.218 290.126 103.554 287.444 102.444C271.821 95.9775 255.699 90.185 240.944 81.8333C228.667 74.8839 221.174 67.0953 218.889 52.8889C217.307 43.058 219.317 33.0461 219.944 23.2222C220.301 17.6371 220.721 12.0366 220.944 6.44444C221.205 -0.0678077 221.632 5.81965 221.778 8.55555C223.406 39.086 222.766 71.1915 218.556 101.444C214.789 128.504 205.751 155.273 195.056 180.333C188.393 195.946 179.263 215.343 163.333 223.556C144.034 233.506 124.306 227.489 105.111 220.722C83.0747 212.954 62.5407 202.368 41.1111 193.222C30.2437 188.584 19.4986 185.855 8.00001 183.556C6.06529 183.169 0.182841 181.877 2.8889 178.444C7.44105 172.671 22.0318 173.388 28.1111 173.167C51.3609 172.321 74.7399 173 98 173C184.667 173 271.333 173 358 173" stroke="url(#paint0_linear_1_2)" stroke-width="3" stroke-linecap="round"/>
<defs>
<linearGradient id="paint0_linear_1_2" x1="189.223" y1="2.08604" x2="189.223" y2="228.817" gradientUnits="userSpaceOnUse">
<stop stop-color="#1D2144"/>
<stop offset="1" stop-color="#D32626"/>
</linearGradient>
</defs>
</svg>
